# xmcd
#
# Track frame offsets:
#	175
#	9747
#	25947
#	38832
#	53915
#	63027
#	82050
#	96410
#	112130
#	128805
#	142342
#	157602
#	172042
#	185132
#	200062
#
# Disc length: 2870 seconds
#
# Revision: 1
# Processed by: cddbd v1.5.1PL2 Copyright (c) Steve Scherf et al.
# Submitted via: audiograbber 1.83.01
#
DISCID=da0b340f
DTITLE=Riverside - Country Band - Travelin' Band
DYEAR=1996
DGENRE=Country
TTITLE0=Travelin' Band
TTITLE1=Roll on big mama
TTITLE2=On my next broken heart
TTITLE3=l don't care
TTITLE4=Riders in the sky
TTITLE5=So,  you are the future
TTITLE6=Don't worry
TTITLE7=Boot scootin'boogie
TTITLE8=Pick a bale of cotton
TTITLE9=Thank god ,l'm country boy
TTITLE10=Cowboy girl
TTITLE11=l will change my life
TTITLE12=500 miles away from home
TTITLE13=Deep in the heart of texas 
TTITLE14=Take me to the river
EXTD=
EXTT0=
EXTT1=
EXTT2=
EXTT3=
EXTT4=
EXTT5=
EXTT6=
EXTT7=
EXTT8=
EXTT9=
EXTT10=
EXTT11=
EXTT12=
EXTT13=
EXTT14=
PLAYORDER=
